# xmcd
#
# Track frame offsets: 
#        150
#        19408
#        38808
#        58914
#        82165
#        95926
#        116690
#        138597
#        155328
#        180863
#        203661
#        221347
#        234564
#
# Disc length: 3396 seconds
#
# Revision: 0
# Processed by: cddbd v1.5.2PL0 Copyright (c) Steve Scherf et al.
# Submitted via: ExactAudioCopy v1.0b4
#
DISCID=b70d420d
DTITLE=Corey Dennison Band - Corey Dennison Band
DYEAR=2016
DGENRE=Blues
TTITLE0=Getcha' Pull
TTITLE1=Tugboat Blues
TTITLE2=The Deacon
TTITLE3=Room To Breathe
TTITLE4=City Lights
TTITLE5=She's No Good
TTITLE6=Aw, Snap
TTITLE7=Don't Say You're Sorry
TTITLE8=A Fool's Goodbye
TTITLE9=Jasper's Hope
TTITLE10=Shame On Me
TTITLE11=Strange Things Happenin'
TTITLE12=Good Enuff
EXTD=
EXTT0=
EXTT1=
EXTT2=
EXTT3=
EXTT4=
EXTT5=
EXTT6=
EXTT7=
EXTT8=
EXTT9=
EXTT10=
EXTT11=
EXTT12=
PLAYORDER=
